<?xml version="1.0" standalone="no"?>
<!DOCTYPE svg PUBLIC "-//W3C//DTD SVG 20010904//EN"
 "http://www.w3.org/TR/2001/REC-SVG-20010904/DTD/svg10.dtd">
<svg version="1.0" xmlns="http://www.w3.org/2000/svg"
 width="16.000000pt" height="16.000000pt" viewBox="0 0 16.000000 16.000000"
 preserveAspectRatio="xMidYMid meet">
<metadata>
Created by potrace 1.11, written by Peter Selinger 2001-2013
</metadata>
<g transform="translate(0.000000,16.000000) scale(0.003125,-0.003125)"
fill="#000000" stroke="none">
<path d="M2319 4556 c-2 -2 -49 -7 -104 -10 -54 -4 -101 -9 -105 -11 -3 -2
-30 -6 -61 -9 -185 -20 -436 -92 -594 -173 -226 -114 -407 -295 -491 -491 -14
-31 -29 -66 -34 -77 -24 -52 -89 -313 -109 -440 -12 -71 -16 -102 -26 -187
l-6 -48 127 3 c108 3 289 -11 359 -27 11 -2 34 -7 50 -11 237 -55 450 -204
584 -410 53 -81 113 -216 140 -314 17 -60 17 -72 5 -97 -21 -43 -44 -53 -136
-61 -102 -9 -322 -10 -403 -1 -265 30 -498 139 -647 303 -20 22 -48 54 -62 70
-25 30 -25 30 -21 5 2 -14 6 -52 9 -85 3 -33 8 -69 10 -80 2 -11 7 -42 10 -68
9 -61 9 -60 39 -188 24 -103 68 -206 146 -337 17 -29 31 -55 31 -57 0 -2 38
-65 85 -141 161 -258 291 -424 470 -600 195 -192 399 -323 610 -392 142 -47
204 -57 370 -56 227 0 427 59 655 195 111 66 332 260 446 390 179 205 366 486
533 802 36 69 64 151 77 227 3 14 7 32 9 40 2 8 7 31 10 50 3 19 10 60 15 90
5 30 12 84 16 120 3 36 7 76 10 89 3 22 -1 20 -29 -15 -156 -190 -353 -301
-622 -350 -157 -28 -521 -24 -581 7 -25 13 -44 49 -44 84 0 32 44 161 82 244
66 140 192 300 290 366 23 17 45 32 48 35 8 8 49 30 110 61 101 50 215 82 375
105 28 4 120 7 206 7 l157 -1 -4 33 c-15 157 -74 451 -120 595 -24 74 -122
262 -162 310 -113 136 -241 236 -405 314 -120 58 -320 122 -437 140 -19 3 -46
8 -60 11 -27 5 -67 11 -150 21 -30 3 -66 8 -80 10 -30 6 -586 14 -591 10z"/>
</g>
</svg>
