<?xml version="1.0" standalone="no"?>
<!DOCTYPE svg PUBLIC "-//W3C//DTD SVG 20010904//EN"
 "http://www.w3.org/TR/2001/REC-SVG-20010904/DTD/svg10.dtd">
<svg version="1.0" xmlns="http://www.w3.org/2000/svg"
 width="16.000000pt" height="16.000000pt" viewBox="0 0 16.000000 16.000000"
 preserveAspectRatio="xMidYMid meet">
<metadata>
Created by potrace 1.11, written by Peter Selinger 2001-2013
</metadata>
<g transform="translate(0.000000,16.000000) scale(0.003125,-0.003125)"
fill="#000000" stroke="none">
<path d="M2309 5056 c-2 -2 -49 -6 -104 -10 -549 -32 -1002 -178 -1300 -419
-90 -73 -129 -113 -200 -207 -54 -71 -59 -78 -105 -160 -89 -160 -201 -568
-236 -860 -14 -117 -15 -162 -5 -156 15 9 308 10 396 2 596 -58 976 -357 1155
-906 32 -100 35 -139 11 -178 -25 -39 -51 -50 -134 -58 -34 -3 -78 -7 -97 -10
-42 -5 -332 -5 -375 0 -16 2 -55 6 -85 10 -140 15 -350 76 -463 132 -140 72
-270 176 -376 303 l-53 65 6 -50 c3 -27 8 -74 11 -104 3 -30 7 -64 9 -75 2
-11 7 -45 11 -75 7 -55 55 -278 76 -355 27 -102 220 -446 405 -726 145 -218
302 -410 472 -579 337 -334 665 -512 1047 -568 56 -8 289 -8 355 0 362 45 724
237 1047 556 146 144 183 186 326 367 106 134 397 582 397 611 0 3 8 18 19 32
65 95 154 295 176 400 2 9 11 50 19 89 20 93 32 160 41 232 3 23 7 55 9 70 3
14 8 59 11 100 l7 74 -47 -59 c-140 -174 -334 -306 -561 -379 -45 -14 -92 -28
-105 -30 -79 -16 -206 -37 -251 -40 -68 -5 -341 -6 -393 0 -173 18 -195 24
-219 60 -29 45 -28 81 8 190 56 167 142 336 221 435 52 64 166 177 225 221
105 80 324 179 449 204 210 43 377 55 593 44 32 -1 60 0 63 3 6 5 -22 245 -30
257 -1 3 -6 27 -9 53 -9 67 -39 204 -76 343 -115 441 -332 708 -735 905 -126
62 -330 134 -435 155 -8 2 -49 10 -90 19 -85 17 -106 21 -210 35 -128 18 -153
21 -225 27 -80 7 -640 15 -646 10z"/>
</g>
</svg>
