<?xml version="1.0" encoding="UTF-8" standalone="no"?>
<!-- Created with Inkscape (http://www.inkscape.org/) -->

<svg
   xmlns:dc="http://purl.org/dc/elements/1.1/"
   xmlns:cc="http://creativecommons.org/ns#"
   xmlns:rdf="http://www.w3.org/1999/02/22-rdf-syntax-ns#"
   xmlns:svg="http://www.w3.org/2000/svg"
   xmlns="http://www.w3.org/2000/svg"
   xmlns:sodipodi="http://sodipodi.sourceforge.net/DTD/sodipodi-0.dtd"
   xmlns:inkscape="http://www.inkscape.org/namespaces/inkscape"
   width="512"
   height="512"
   viewBox="0 0 135.46666 135.46667"
   version="1.1"
   id="svg868"
   inkscape:version="0.92.1 r15371"
   sodipodi:docname="Favicon.svg"
   inkscape:export-filename="I:\Desktop\favicon.png"
   inkscape:export-xdpi="96"
   inkscape:export-ydpi="96">
  <defs
     id="defs862" />
  <sodipodi:namedview
     id="base"
     pagecolor="#ffffff"
     bordercolor="#666666"
     borderopacity="1.0"
     inkscape:pageopacity="0.0"
     inkscape:pageshadow="2"
     inkscape:zoom="0.98994949"
     inkscape:cx="104.18222"
     inkscape:cy="256"
     inkscape:document-units="px"
     inkscape:current-layer="svg868"
     showgrid="false"
     units="px"
     inkscape:pagecheckerboard="true"
     inkscape:window-width="1852"
     inkscape:window-height="1088"
     inkscape:window-x="-8"
     inkscape:window-y="-8"
     inkscape:window-maximized="1"
     showguides="true"
     inkscape:guide-bbox="true"
     objecttolerance="20"
     inkscape:snap-perpendicular="false"
     inkscape:snap-tangential="false"
     guidetolerance="20"
     gridtolerance="10" />
  <metadata
     id="metadata865">
    <rdf:RDF>
      <cc:Work
         rdf:about="">
        <dc:format>image/svg+xml</dc:format>
        <dc:type
           rdf:resource="http://purl.org/dc/dcmitype/StillImage" />
        <dc:title></dc:title>
      </cc:Work>
    </rdf:RDF>
  </metadata>
  <path
     style="clip-rule:evenodd;fill:#0275d8;fill-opacity:1;fill-rule:evenodd;stroke-width:2"
     d="M 21.695835,-3.6352489e-7 H 113.77083 C 125.79032,-3.6352489e-7 135.46667,9.6763399 135.46667,21.69582 v 92.075 c 0,12.0195 -9.67635,21.69584 -21.69584,21.69584 H 21.695835 C 9.6763436,135.46666 1.6817626e-6,125.79032 1.6817626e-6,113.77082 v -92.075 C 1.6817626e-6,9.6763399 9.6763436,-3.6352489e-7 21.695835,-3.6352489e-7 Z"
     id="outline"
     inkscape:connector-curvature="0" />
  <path
     style="clip-rule:evenodd;fill:#ffffff;fill-rule:evenodd;stroke-width:2.20346856"
     d="m 67.656876,14.81722 c -12.672964,0 -22.59007,1.990194 -29.75923,5.746886 -7.166079,3.755062 -11.670297,9.158697 -13.900935,16.615521 -1.559196,5.365358 -2.582774,10.62019 -3.078972,15.768352 a 2.3989977,2.3989977 0 0 1 -0.0022,0.0174 l -0.02732,0.260734 c 8.358352,-0.649536 15.475776,0.398918 21.082545,3.568606 6.225504,3.519491 10.450786,9.526939 12.556156,17.472959 a 2.3989977,2.3989977 0 0 1 -2.024568,2.99586 c -9.66369,1.19152 -17.695069,0.1834 -23.926963,-3.33962 -3.145012,-1.77852 -5.76447,-4.2035 -7.85684,-7.18898 0.377454,5.07362 1.22288,10.0898 2.654254,15.04302 6.560716,13.075241 13.600535,22.810502 20.981205,29.217242 7.412228,6.4341 15.087526,9.55902 23.30296,9.6548 8.215501,-0.0958 15.909175,-3.22204 23.354189,-9.65822 7.412888,-6.40838 14.498933,-16.144401 21.122423,-29.219502 1.42404,-4.93038 2.256,-9.92304 2.6144,-14.97244 -2.08536,2.95794 -4.69431,5.35744 -7.81815,7.12354 -6.23163,3.52314 -14.263273,4.53116 -23.926959,3.33974 a 2.3989977,2.3989977 0 0 1 -2.026904,-2.98556 c 2.07212,-7.94876 6.28253,-13.96274 12.509486,-17.483201 5.588441,-3.15951 12.690127,-4.210168 21.034707,-3.575436 l -0.0262,-0.253928 a 2.3989977,2.3989977 0 0 1 -0.002,-0.0176 c -0.49592,-5.145968 -1.52053,-10.39895 -3.07889,-15.76261 -2.26118,-7.457484 -6.78926,-12.864205 -13.971515,-16.620105 -7.18617,-3.757904 -17.11132,-5.74801 -29.784307,-5.74801 z"
     id="head"
     inkscape:connector-curvature="0" />
</svg>
