<?xml version="1.0" encoding="UTF-8" standalone="no"?>
<!-- Generator: Adobe Illustrator 15.1.0, SVG Export Plug-In . SVG Version: 6.00 Build 0)  -->

<svg
   xmlns:dc="http://purl.org/dc/elements/1.1/"
   xmlns:cc="http://creativecommons.org/ns#"
   xmlns:rdf="http://www.w3.org/1999/02/22-rdf-syntax-ns#"
   xmlns:svg="http://www.w3.org/2000/svg"
   xmlns="http://www.w3.org/2000/svg"
   xmlns:sodipodi="http://sodipodi.sourceforge.net/DTD/sodipodi-0.dtd"
   xmlns:inkscape="http://www.inkscape.org/namespaces/inkscape"
   version="1.1"
   id="Layer_1"
   x="0px"
   y="0px"
   width="120px"
   height="120px"
   viewBox="0 0 120 120"
   enable-background="new 0 0 120 120"
   xml:space="preserve"
   sodipodi:docname="github-mark-white.svg"
   inkscape:version="0.92.1 r15371"><metadata
     id="metadata9"><rdf:RDF><cc:Work
         rdf:about=""><dc:format>image/svg+xml</dc:format><dc:type
           rdf:resource="http://purl.org/dc/dcmitype/StillImage" /><dc:title></dc:title></cc:Work></rdf:RDF></metadata><defs
     id="defs7" /><sodipodi:namedview
     pagecolor="#ffffff"
     bordercolor="#666666"
     borderopacity="1"
     objecttolerance="10"
     gridtolerance="10"
     guidetolerance="10"
     inkscape:pageopacity="0"
     inkscape:pageshadow="2"
     inkscape:window-width="1852"
     inkscape:window-height="1088"
     id="namedview5"
     showgrid="false"
     inkscape:pagecheckerboard="true"
     inkscape:zoom="5.5625733"
     inkscape:cx="60.283513"
     inkscape:cy="46.713796"
     inkscape:window-x="-8"
     inkscape:window-y="-8"
     inkscape:window-maximized="1"
     inkscape:current-layer="Layer_1" /><path
     d="M 59.996,1.4814239 C 26.866,1.4814239 0,28.347424 0,61.485424 c 0,26.506 17.19,48.994996 41.034,56.928996 3,0.551 4.095,-1.302 4.095,-2.892 0,-1.425 -0.052,-5.198 -0.081,-10.205 -16.69,3.626 -20.211,-8.042996 -20.211,-8.042996 -2.728,-6.931 -6.662,-8.776 -6.662,-8.776 -5.447,-3.723 0.412,-3.647 0.412,-3.647 6.021,0.425 9.19,6.184 9.19,6.184 5.353,9.168996 14.042,6.521 17.461,4.985 0.545,-3.878 2.095,-6.521 3.81,-8.021 -13.323,-1.515 -27.33,-6.661 -27.33,-29.653 0,-6.55 2.338,-11.906 6.176,-16.1 -0.617,-1.518 -2.676,-7.618 0.588,-15.877 0,0 5.038,-1.615 16.5,6.151 4.786,-1.331 9.918,-2 15.021,-2.021 5.093,0.021 10.229,0.691 15.021,2.021 11.453,-7.766 16.481,-6.151 16.481,-6.151 3.273,8.259 1.216,14.359 0.597,15.877 3.85,4.194 6.169,9.55 6.169,16.1 0,23.05 -14.028,28.121 -27.395,29.606 2.155,1.853 4.076,5.515 4.076,11.111 0,8.020996 -0.076,14.491996 -0.076,16.459996 0,1.604 1.083,3.471 4.126,2.885 C 102.821,110.45942 120,87.984424 120,61.485424 120,28.347424 93.131,1.4814239 59.996,1.4814239 Z"
     id="path2"
     inkscape:connector-curvature="0"
     style="clip-rule:evenodd;fill:#ffffff;fill-rule:evenodd" /></svg>