<?xml version="1.0" encoding="UTF-8" standalone="no"?>
<!-- Created with Inkscape (http://www.inkscape.org/) -->

<svg
   xmlns:dc="http://purl.org/dc/elements/1.1/"
   xmlns:cc="http://creativecommons.org/ns#"
   xmlns:rdf="http://www.w3.org/1999/02/22-rdf-syntax-ns#"
   xmlns:svg="http://www.w3.org/2000/svg"
   xmlns="http://www.w3.org/2000/svg"
   xmlns:sodipodi="http://sodipodi.sourceforge.net/DTD/sodipodi-0.dtd"
   xmlns:inkscape="http://www.inkscape.org/namespaces/inkscape"
   width="256"
   height="256"
   viewBox="0 0 67.733332 67.733335"
   version="1.1"
   id="svg868"
   inkscape:version="0.92.1 r15371"
   sodipodi:docname="logo2 - Copy - Copy.svg">
  <defs
     id="defs862" />
  <sodipodi:namedview
     id="base"
     pagecolor="#ffffff"
     bordercolor="#666666"
     borderopacity="1.0"
     inkscape:pageopacity="0.0"
     inkscape:pageshadow="2"
     inkscape:zoom="2.8"
     inkscape:cx="66.845933"
     inkscape:cy="106.34793"
     inkscape:document-units="px"
     inkscape:current-layer="svg868"
     showgrid="false"
     units="px"
     inkscape:pagecheckerboard="true"
     inkscape:window-width="1852"
     inkscape:window-height="1088"
     inkscape:window-x="-8"
     inkscape:window-y="-8"
     inkscape:window-maximized="1"
     showguides="true"
     inkscape:guide-bbox="true"
     objecttolerance="20"
     inkscape:snap-perpendicular="false"
     inkscape:snap-tangential="false"
     guidetolerance="20"
     gridtolerance="10" />
  <metadata
     id="metadata865">
    <rdf:RDF>
      <cc:Work
         rdf:about="">
        <dc:format>image/svg+xml</dc:format>
        <dc:type
           rdf:resource="http://purl.org/dc/dcmitype/StillImage" />
        <dc:title />
      </cc:Work>
    </rdf:RDF>
  </metadata>
  <path
     style="clip-rule:evenodd;fill:#ffffff;fill-rule:evenodd"
     d="m 10.847918,0 h 46.037497 c 6.009746,0 10.847917,4.83817 10.847917,10.84791 v 46.0375 c 0,6.00975 -4.838171,10.84792 -10.847917,10.84792 H 10.847918 C 4.8381725,67.73333 1.6817626e-6,62.89516 1.6817626e-6,56.88541 V 10.84791 C 1.6817626e-6,4.83817 4.8381725,0 10.847918,0 Z"
     id="outline"
     inkscape:connector-curvature="0" />
  <path
     style="clip-rule:evenodd;fill:#0275d8;fill-rule:evenodd"
     d="m 10.583333,2.11667 h 46.566668 c 4.690533,0 8.466666,3.77613 8.466666,8.46666 V 57.15 c 0,4.69053 -3.776133,8.46667 -8.466666,8.46667 H 10.583333 c -4.6905333,0 -8.4666664,-3.77614 -8.4666664,-8.46667 V 10.58333 c 0,-4.69053 3.7761331,-8.46666 8.4666664,-8.46666 z"
     id="background"
     inkscape:connector-curvature="0" />
  <path
     style="clip-rule:evenodd;fill:#ffffff;fill-rule:evenodd"
     d="m 33.832002,9.85172 c -5.75137,0 -10.25205,0.90321 -13.50563,2.60811 -3.25218,1.70416 -5.29633,4.15649 -6.30866,7.54062 -0.70761,2.43496 -1.17214,4.81976 -1.39733,7.15615 a 1.0887369,1.0887369 0 0 1 -10e-4,0.008 l -0.0124,0.11833 c 3.79327,-0.29478 7.02337,0.18104 9.56789,1.61954 2.82532,1.59725 4.74288,4.32361 5.69836,7.92975 a 1.0887369,1.0887369 0 0 1 -0.91881,1.35961 c -4.38567,0.5407 -8.03055,0.0832 -10.85877,-1.51567 -1.4273,-0.80714 -2.61609,-1.90767 -3.56567,-3.26257 0.1713,2.30256 0.55498,4.57905 1.20458,6.82697 2.97745,5.93394 6.17233,10.35209 9.5219,13.25966 3.36389,2.91999 6.84717,4.33817 10.57558,4.38164 3.72844,-0.0435 7.22006,-1.46226 10.59883,-4.38319 3.36419,-2.90832 6.58005,-7.32681 9.58599,-13.26069 0.64627,-2.23755 1.02384,-4.50337 1.18649,-6.79494 -0.9464,1.3424 -2.13042,2.43137 -3.54811,3.23288 -2.8281,1.5989 -6.4731,2.05637 -10.85877,1.51567 a 1.0887369,1.0887369 0 0 1 -0.91984,-1.35495 c 0.94039,-3.60739 2.8512,-6.33671 5.67718,-7.9344 2.5362,-1.43388 5.75916,-1.9107 9.54618,-1.62264 l -0.0119,-0.11524 a 1.0887369,1.0887369 0 0 1 -0.001,-0.008 c -0.2251,-2.33542 -0.6901,-4.71938 -1.39733,-7.15357 -1.02619,-3.38443 -3.08117,-5.83816 -6.34069,-7.5427 -3.2613,-1.70545 -7.76563,-2.60862 -13.51701,-2.60862 z"
     id="head"
     inkscape:connector-curvature="0" />
  <path
     style="clip-rule:evenodd;fill:#ffffff;fill-rule:evenodd"
     d="m 56.222401,49.1224 c -0.597309,0.006 -1.210062,0.11405 -1.815796,0.28603 l 0.09787,0.0186 c 1.142337,-0.34838 3.706432,1.02397 3.135263,2.24688 -0.144729,0.19197 -0.12028,0.5335 0.05418,0.74799 l -2.52359,2.31503 -1.920072,-1.66491 0.517884,-2.10416 -2.860887,-1.69113 -0.814396,0.748 1.674818,1.53441 -0.32273,1.04044 -1.1348,0.29593 -1.67482,-1.5356 -0.757312,0.6944 1.924152,2.54282 2.269018,-0.39555 1.409762,1.37655 -5.057668,4.45124 c -0.483297,0.42541 -0.103395,0.78673 0.100781,0.97751 l 0.951297,0.87207 c 0.20805,0.1896 0.757363,0.44557 1.147617,0.0664 l 4.713966,-4.55552 4.698816,4.58756 c 1.219872,1.12692 2.864799,-0.56289 1.723756,-1.52511 l -5.415932,-4.69765 2.502036,-2.29349 c 0.339856,0.28084 0.660802,0.30477 0.96528,0.22835 0.588038,-0.14758 0.915777,0.37996 1.26762,0.76548 l -0.159036,0.14388 c -0.235188,0.21803 -0.213522,0.5849 0.0501,0.82664 0.263617,0.24174 0.666011,0.26226 0.901201,0.0466 l 1.051495,-0.96353 c 0.235187,-0.21805 0.213059,-0.58551 -0.05185,-0.82605 -0.237774,-0.21922 -0.582784,-0.24735 -0.82314,-0.0908 -0.721067,-0.74178 -0.342168,-0.85352 -1.293249,-1.81929 l -1.782011,-1.66958 c -0.801996,-0.72135 -1.754106,-0.99129 -2.749618,-0.98042 z m 4.738432,11.65092 c 0.142143,0 0.284088,0.0502 0.392634,0.14971 0.217097,0.19907 0.217097,0.52096 0,0.72002 -0.217094,0.1979 -0.568178,0.1979 -0.785271,0 -0.217097,-0.19906 -0.217097,-0.52095 0,-0.72002 0.108547,-0.0995 0.250491,-0.14971 0.392637,-0.14971 z"
     id="tools"
     inkscape:connector-curvature="0" />
</svg>
